<svg viewBox="0 0 1000 650" xmlns="http://www.w3.org/2000/svg" font-family="Arial, sans-serif">
  <rect x="0" y="0" width="1000" height="650" fill="#ffffff" />
  <g stroke="#203045" stroke-width="4" fill="none">
    <rect x="60" y="40" width="880" height="560" />
    <line x1="440" y1="40" x2="440" y2="300" />
    <line x1="440" y1="300" x2="940" y2="300" />
    <line x1="440" y1="300" x2="440" y2="600" />
    <line x1="240" y1="300" x2="240" y2="600" />
    <line x1="690" y1="40" x2="690" y2="300" />
  </g>
  <g stroke="#9ca3af" stroke-width="2" fill="none" stroke-dasharray="6 6">
    <path d="M 690 300 A 60 60 0 0 1 750 240" />
    <path d="M 440 450 A 50 50 0 0 1 390 400" />
  </g>
  <g fill="#4a5a72" font-size="26" text-anchor="middle">
    <text x="250" y="180">Sala</text>
    <text x="565" y="180">Cozinha</text>
    <text x="815" y="180">Garagem</text>
    <text x="140" y="460">Quarto 1</text>
    <text x="340" y="460">Quarto 2 (Suíte)</text>
    <text x="565" y="460">Área Externa</text>
    <text x="815" y="460">Piscina</text>
  </g>
  <text x="500" y="630" fill="#4a5a72" font-size="22" text-anchor="middle" font-weight="bold">
    Planta Baixa — Térreo — 200 m² (esquemático)
  </text>
</svg>
